<svg width="3525" height="924" xmlns="http://www.w3.org/2000/svg" xmlns:xlink="http://www.w3.org/1999/xlink" xml:space="preserve" overflow="hidden"><g transform="translate(-718 -1028)"><path d="M1723 1047.62C1723 1036.78 1731.78 1028 1742.62 1028L4161.38 1028C4172.22 1028 4181 1036.78 4181 1047.62L4181 1714.38C4181 1725.22 4172.22 1734 4161.38 1734L1742.62 1734C1731.78 1734 1723 1725.22 1723 1714.38Z" fill="#F2F2F2" fill-rule="evenodd"/><text fill="#262626" font-family="Consolas,Consolas_MSFontService,sans-serif" font-weight="400" font-size="50" transform="matrix(1 0 0 1 2745.75 1098)">Hypervisor Host</text><text fill="#262626" font-family="Consolas,Consolas_MSFontService,sans-serif" font-weight="400" font-size="50" transform="matrix(1 0 0 1 3158.25 1098)"> </text><text fill="#262626" font-family="Consolas,Consolas_MSFontService,sans-serif" font-weight="400" font-size="37" transform="matrix(1 0 0 1 2238.68 1220)">Hypervisor Host </text><text fill="#262626" font-family="Consolas,Consolas_MSFontService,sans-serif" font-weight="400" font-size="37" transform="matrix(1 0 0 1 2559.52 1220)">IP: </text><text fill="#262626" font-family="Consolas,Consolas_MSFontService,sans-serif" font-weight="400" font-size="37" transform="matrix(1 0 0 1 2639.73 1220)">192.168.200.1</text><text fill="#262626" font-family="Consolas,Consolas_MSFontService,sans-serif" font-weight="400" font-size="37" transform="matrix(1 0 0 1 2900.4 1220)"> </text><text fill="#262626" font-family="MS Mincho,MS Mincho_MSFontService,sans-serif" font-weight="400" font-size="37" transform="matrix(1 0 0 1 2330.63 1264)">※</text><text fill="#262626" font-family="Consolas,Consolas_MSFontService,sans-serif" font-weight="400" font-size="37" transform="matrix(1 0 0 1 2367.29 1264)">configured </text><text fill="#262626" font-family="Consolas,Consolas_MSFontService,sans-serif" font-weight="400" font-size="37" transform="matrix(1 0 0 1 2587.86 1264)">via </text><text fill="#262626" font-family="Consolas,Consolas_MSFontService,sans-serif" font-weight="400" font-size="37" transform="matrix(1 0 0 1 2668.07 1264)">netplan</text><text fill="#262626" font-family="Consolas,Consolas_MSFontService,sans-serif" font-weight="400" font-size="37" transform="matrix(1 0 0 1 2808.44 1264)"> </text><text fill="#262626" font-family="Consolas,Consolas_MSFontService,sans-serif" font-weight="400" font-size="37" transform="matrix(1 0 0 1 3323.67 1611)">The TAP is automatically created by virty, </text><text fill="#262626" font-family="Consolas,Consolas_MSFontService,sans-serif" font-weight="400" font-size="37" transform="matrix(1 0 0 1 3323.67 1655)">so we will not create it</text><text fill="#262626" font-family="Consolas,Consolas_MSFontService,sans-serif" font-weight="400" font-size="37" transform="matrix(1 0 0 1 3804.92 1655)"> </text><path d="M3036.5 1565.5 3036.5 1907" stroke="#8FAADC" stroke-width="6.875" stroke-miterlimit="8" fill="none" fill-rule="evenodd"/><path d="M2570.5 1416.5 2570.5 1567.93" stroke="#F4B183" stroke-width="6.875" stroke-miterlimit="8" fill="none" fill-rule="evenodd"/><path d="M2351.5 1323.5C2351.5 1309.14 2363.14 1297.5 2377.5 1297.5L2762.5 1297.5C2776.86 1297.5 2788.5 1309.14 2788.5 1323.5L2788.5 1427.5C2788.5 1441.86 2776.86 1453.5 2762.5 1453.5L2377.5 1453.5C2363.14 1453.5 2351.5 1441.86 2351.5 1427.5Z" stroke="#F4B183" stroke-width="4.58333" stroke-miterlimit="8" stroke-dasharray="18.3333 13.75" fill="#FBE5D6" fill-rule="evenodd"/><text fill="#262626" font-family="Consolas,Consolas_MSFontService,sans-serif" font-weight="400" font-size="50" transform="matrix(1 0 0 1 2473.29 1369)">ovs</text><text fill="#262626" font-family="Consolas,Consolas_MSFontService,sans-serif" font-weight="400" font-size="50" transform="matrix(1 0 0 1 2555.79 1369)">-</text><text fill="#262626" font-family="Consolas,Consolas_MSFontService,sans-serif" font-weight="400" font-size="50" transform="matrix(1 0 0 1 2583.29 1369)">br0</text><text fill="#262626" font-family="Consolas,Consolas_MSFontService,sans-serif" font-weight="400" font-size="50" transform="matrix(1 0 0 1 2665.79 1369)"> </text><text fill="#262626" font-family="Consolas,Consolas_MSFontService,sans-serif" font-weight="400" font-size="37" transform="matrix(1 0 0 1 2469.28 1416)">(</text><text fill="#262626" font-family="Consolas,Consolas_MSFontService,sans-serif" font-weight="400" font-size="37" transform="matrix(1 0 0 1 2489.33 1416)">OVS</text><text fill="#262626" font-family="Consolas,Consolas_MSFontService,sans-serif" font-weight="400" font-size="37" transform="matrix(1 0 0 1 2549.49 1416)"> </text><text fill="#262626" font-family="Consolas,Consolas_MSFontService,sans-serif" font-weight="400" font-size="37" transform="matrix(1 0 0 1 2569.54 1416)">Port</text><text fill="#262626" font-family="Consolas,Consolas_MSFontService,sans-serif" font-weight="400" font-size="37" transform="matrix(1 0 0 1 2649.75 1416)">)</text><text fill="#262626" font-family="Consolas,Consolas_MSFontService,sans-serif" font-weight="400" font-size="37" transform="matrix(1 0 0 1 2669.8 1416)"> </text><path d="M3350.5 1416.5 3350.5 1567.93" stroke="#8FAADC" stroke-width="6.875" stroke-miterlimit="8" fill="none" fill-rule="evenodd"/><path d="M3846.5 1416.5 3846.5 1567.93" stroke="#8FAADC" stroke-width="6.875" stroke-miterlimit="8" fill="none" fill-rule="evenodd"/><path d="M2135.5 1567.5 4071.62 1567.5" stroke="#F4B183" stroke-width="6.875" stroke-miterlimit="8" fill="none" fill-rule="evenodd"/><path d="M1761.5 1513.5C1761.5 1499.14 1773.14 1487.5 1787.5 1487.5L2244.5 1487.5C2258.86 1487.5 2270.5 1499.14 2270.5 1513.5L2270.5 1617.5C2270.5 1631.86 2258.86 1643.5 2244.5 1643.5L1787.5 1643.5C1773.14 1643.5 1761.5 1631.86 1761.5 1617.5Z" stroke="#F4B183" stroke-width="4.58333" stroke-miterlimit="8" stroke-dasharray="18.3333 13.75" fill="#FBE5D6" fill-rule="evenodd"/><text fill="#262626" font-family="Consolas,Consolas_MSFontService,sans-serif" font-weight="400" font-size="50" transform="matrix(1 0 0 1 1919.33 1559)">ovs</text><text fill="#262626" font-family="Consolas,Consolas_MSFontService,sans-serif" font-weight="400" font-size="50" transform="matrix(1 0 0 1 2001.83 1559)">-</text><text fill="#262626" font-family="Consolas,Consolas_MSFontService,sans-serif" font-weight="400" font-size="50" transform="matrix(1 0 0 1 2029.33 1559)">br0</text><text fill="#262626" font-family="Consolas,Consolas_MSFontService,sans-serif" font-weight="400" font-size="50" transform="matrix(1 0 0 1 2111.83 1559)"> </text><text fill="#262626" font-family="Consolas,Consolas_MSFontService,sans-serif" font-weight="400" font-size="37" transform="matrix(1 0 0 1 1805.02 1606)">OVS</text><text fill="#262626" font-family="Consolas,Consolas_MSFontService,sans-serif" font-weight="400" font-size="37" transform="matrix(1 0 0 1 1865.18 1606)"> </text><text fill="#262626" font-family="Consolas,Consolas_MSFontService,sans-serif" font-weight="400" font-size="37" transform="matrix(1 0 0 1 1885.23 1606)">Bridge</text><text fill="#262626" font-family="Consolas,Consolas_MSFontService,sans-serif" font-weight="400" font-size="37" transform="matrix(1 0 0 1 2005.54 1606)">(L2</text><text fill="#262626" font-family="Consolas,Consolas_MSFontService,sans-serif" font-weight="400" font-size="37" transform="matrix(1 0 0 1 2065.7 1606)"> </text><text fill="#262626" font-family="Consolas,Consolas_MSFontService,sans-serif" font-weight="400" font-size="37" transform="matrix(1 0 0 1 2085.75 1606)">Switch)</text><text fill="#262626" font-family="Consolas,Consolas_MSFontService,sans-serif" font-weight="400" font-size="37" transform="matrix(1 0 0 1 2226.12 1606)"> </text><path d="M2292.5 1906.5 3780.52 1906.5" stroke="#8FAADC" stroke-width="6.875" stroke-miterlimit="8" fill="none" fill-rule="evenodd"/><path d="M2788.5 1644.5C2788.5 1630.14 2800.14 1618.5 2814.5 1618.5L3258.5 1618.5C3272.86 1618.5 3284.5 1630.14 3284.5 1644.5L3284.5 1748.5C3284.5 1762.86 3272.86 1774.5 3258.5 1774.5L2814.5 1774.5C2800.14 1774.5 2788.5 1762.86 2788.5 1748.5Z" stroke="#8FAADC" stroke-width="4.58333" stroke-miterlimit="8" fill="#DAE3F3" fill-rule="evenodd"/><text fill="#262626" font-family="Consolas,Consolas_MSFontService,sans-serif" font-weight="400" font-size="50" transform="matrix(1 0 0 1 2980.89 1691)">eth0</text><text fill="#262626" font-family="Consolas,Consolas_MSFontService,sans-serif" font-weight="400" font-size="50" transform="matrix(1 0 0 1 3090.89 1691)"> </text><text fill="#262626" font-family="Consolas,Consolas_MSFontService,sans-serif" font-weight="400" font-size="37" transform="matrix(1 0 0 1 2885.49 1738)">(</text><text fill="#262626" font-family="Consolas,Consolas_MSFontService,sans-serif" font-weight="400" font-size="37" transform="matrix(1 0 0 1 2905.54 1738)">Physical Port)</text><text fill="#262626" font-family="Consolas,Consolas_MSFontService,sans-serif" font-weight="400" font-size="37" transform="matrix(1 0 0 1 3186.27 1738)"> </text><text fill="#262626" font-family="Consolas,Consolas_MSFontService,sans-serif" font-weight="400" font-size="37" transform="matrix(1 0 0 1 3063.4 1828)">Trunk      : ALL</text><text fill="#262626" font-family="Consolas,Consolas_MSFontService,sans-serif" font-weight="400" font-size="37" transform="matrix(1 0 0 1 3384.23 1828)"> </text><text fill="#262626" font-family="Consolas,Consolas_MSFontService,sans-serif" font-weight="400" font-size="37" transform="matrix(1 0 0 1 3063.4 1872)">Native VLAN: 100</text><text fill="#262626" font-family="Consolas,Consolas_MSFontService,sans-serif" font-weight="400" font-size="37" transform="matrix(1 0 0 1 3384.23 1872)"> </text><text fill="#262626" font-family="Consolas,Consolas_MSFontService,sans-serif" font-weight="400" font-size="37" transform="matrix(1 0 0 1 3063.4 1916)"> </text><text fill="#262626" font-family="Consolas,Consolas_MSFontService,sans-serif" font-weight="400" font-size="37" transform="matrix(1 0 0 1 2597.09 1500)">Access VLAN: 200</text><text fill="#262626" font-family="Consolas,Consolas_MSFontService,sans-serif" font-weight="400" font-size="37" transform="matrix(1 0 0 1 2917.92 1500)"> </text><text fill="#262626" font-family="Consolas,Consolas_MSFontService,sans-serif" font-weight="400" font-size="37" transform="matrix(1 0 0 1 3378.24 1504)">configure any VLAN from virty</text><text fill="#262626" font-family="Consolas,Consolas_MSFontService,sans-serif" font-weight="400" font-size="37" transform="matrix(1 0 0 1 3959.75 1504)"> </text><rect x="3115.5" y="1147.5" width="452" height="182" stroke="#FF9999" stroke-width="4.58333" stroke-miterlimit="8" stroke-dasharray="18.3333 13.75" fill="#FFCCCC"/><text fill="#262626" font-family="Consolas,Consolas_MSFontService,sans-serif" font-weight="400" font-size="50" transform="matrix(1 0 0 1 3299.61 1212)">VM1</text><text fill="#262626" font-family="Consolas,Consolas_MSFontService,sans-serif" font-weight="400" font-size="50" transform="matrix(1 0 0 1 3382.11 1212)"> </text><text fill="#262626" font-family="Consolas,Consolas_MSFontService,sans-serif" font-weight="400" font-size="37" transform="matrix(1 0 0 1 3240.6 1259)">(QEMU/KVM)</text><text fill="#262626" font-family="Consolas,Consolas_MSFontService,sans-serif" font-weight="400" font-size="37" transform="matrix(1 0 0 1 3441.12 1259)"> </text><path d="M3205.5 1321.33C3205.5 1307.07 3217.07 1295.5 3231.33 1295.5L3451.67 1295.5C3465.93 1295.5 3477.5 1307.07 3477.5 1321.33L3477.5 1424.67C3477.5 1438.93 3465.93 1450.5 3451.67 1450.5L3231.33 1450.5C3217.07 1450.5 3205.5 1438.93 3205.5 1424.67Z" stroke="#8FAADC" stroke-width="4.58333" stroke-miterlimit="8" stroke-dasharray="18.3333 13.75" fill="#DAE3F3" fill-rule="evenodd"/><text fill="#262626" font-family="Consolas,Consolas_MSFontService,sans-serif" font-weight="400" font-size="50" transform="matrix(1 0 0 1 3272.14 1367)">vtap1</text><text fill="#262626" font-family="Consolas,Consolas_MSFontService,sans-serif" font-weight="400" font-size="50" transform="matrix(1 0 0 1 3409.64 1367)"> </text><text fill="#262626" font-family="Consolas,Consolas_MSFontService,sans-serif" font-weight="400" font-size="37" transform="matrix(1 0 0 1 3250.67 1414)">(VM Port)</text><text fill="#262626" font-family="Consolas,Consolas_MSFontService,sans-serif" font-weight="400" font-size="37" transform="matrix(1 0 0 1 3431.14 1414)"> </text><rect x="3605.5" y="1141.5" width="452" height="182" stroke="#FF9999" stroke-width="4.58333" stroke-miterlimit="8" stroke-dasharray="18.3333 13.75" fill="#FFCCCC"/><text fill="#262626" font-family="Consolas,Consolas_MSFontService,sans-serif" font-weight="400" font-size="50" transform="matrix(1 0 0 1 3789.65 1206)">VM2</text><text fill="#262626" font-family="Consolas,Consolas_MSFontService,sans-serif" font-weight="400" font-size="50" transform="matrix(1 0 0 1 3872.15 1206)"> </text><text fill="#262626" font-family="Consolas,Consolas_MSFontService,sans-serif" font-weight="400" font-size="37" transform="matrix(1 0 0 1 3730.64 1253)">(QEMU/KVM)</text><text fill="#262626" font-family="Consolas,Consolas_MSFontService,sans-serif" font-weight="400" font-size="37" transform="matrix(1 0 0 1 3931.16 1253)"> </text><path d="M3695.5 1320.5C3695.5 1306.14 3707.14 1294.5 3721.5 1294.5L3941.5 1294.5C3955.86 1294.5 3967.5 1306.14 3967.5 1320.5L3967.5 1424.5C3967.5 1438.86 3955.86 1450.5 3941.5 1450.5L3721.5 1450.5C3707.14 1450.5 3695.5 1438.86 3695.5 1424.5Z" stroke="#8FAADC" stroke-width="4.58333" stroke-miterlimit="8" stroke-dasharray="18.3333 13.75" fill="#DAE3F3" fill-rule="evenodd"/><text fill="#262626" font-family="Consolas,Consolas_MSFontService,sans-serif" font-weight="400" font-size="50" transform="matrix(1 0 0 1 3762.14 1367)">vtap2</text><text fill="#262626" font-family="Consolas,Consolas_MSFontService,sans-serif" font-weight="400" font-size="50" transform="matrix(1 0 0 1 3899.64 1367)"> </text><text fill="#262626" font-family="Consolas,Consolas_MSFontService,sans-serif" font-weight="400" font-size="37" transform="matrix(1 0 0 1 3740.67 1414)">(VM Port)</text><text fill="#262626" font-family="Consolas,Consolas_MSFontService,sans-serif" font-weight="400" font-size="37" transform="matrix(1 0 0 1 3921.14 1414)"> </text><path d="M718 1047.62C718 1036.78 726.784 1028 737.62 1028L1461.38 1028C1472.22 1028 1481 1036.78 1481 1047.62L1481 1714.38C1481 1725.22 1472.22 1734 1461.38 1734L737.62 1734C726.784 1734 718 1725.22 718 1714.38Z" fill="#F2F2F2" fill-rule="evenodd"/><text fill="#262626" font-family="Consolas,Consolas_MSFontService,sans-serif" font-weight="400" font-size="50" transform="matrix(1 0 0 1 893.222 1098)">Hypervisor Host</text><text fill="#262626" font-family="Consolas,Consolas_MSFontService,sans-serif" font-weight="400" font-size="50" transform="matrix(1 0 0 1 1305.72 1098)"> </text><path d="M847.5 1644.5C847.5 1630.14 859.141 1618.5 873.5 1618.5L1317.5 1618.5C1331.86 1618.5 1343.5 1630.14 1343.5 1644.5L1343.5 1748.5C1343.5 1762.86 1331.86 1774.5 1317.5 1774.5L873.5 1774.5C859.141 1774.5 847.5 1762.86 847.5 1748.5Z" stroke="#8FAADC" stroke-width="4.58333" stroke-miterlimit="8" fill="#DAE3F3" fill-rule="evenodd"/><text fill="#262626" font-family="Consolas,Consolas_MSFontService,sans-serif" font-weight="400" font-size="50" transform="matrix(1 0 0 1 1040.02 1691)">eth0</text><text fill="#262626" font-family="Consolas,Consolas_MSFontService,sans-serif" font-weight="400" font-size="50" transform="matrix(1 0 0 1 1150.02 1691)"> </text><text fill="#262626" font-family="Consolas,Consolas_MSFontService,sans-serif" font-weight="400" font-size="37" transform="matrix(1 0 0 1 944.614 1738)">(</text><text fill="#262626" font-family="Consolas,Consolas_MSFontService,sans-serif" font-weight="400" font-size="37" transform="matrix(1 0 0 1 964.666 1738)">Physical Port)</text><text fill="#262626" font-family="Consolas,Consolas_MSFontService,sans-serif" font-weight="400" font-size="37" transform="matrix(1 0 0 1 1245.4 1738)"> </text><path d="M785.5 1906.5 1414.23 1906.5" stroke="#8FAADC" stroke-width="6.875" stroke-miterlimit="8" fill="none" fill-rule="evenodd"/><text fill="#262626" font-family="Consolas,Consolas_MSFontService,sans-serif" font-weight="400" font-size="37" transform="matrix(1 0 0 1 1140.31 1832)">No VLAN Config</text><text fill="#262626" font-family="Consolas,Consolas_MSFontService,sans-serif" font-weight="400" font-size="37" transform="matrix(1 0 0 1 1421.04 1832)"> </text><path d="M1095.5 1774.5 1095.5 1906.24" stroke="#8FAADC" stroke-width="6.875" stroke-miterlimit="8" fill="none" fill-rule="evenodd"/><text fill="#262626" font-family="Consolas,Consolas_MSFontService,sans-serif" font-weight="400" font-size="37" transform="matrix(1 0 0 1 768.612 1541)">Hypervisor Host </text><text fill="#262626" font-family="Consolas,Consolas_MSFontService,sans-serif" font-weight="400" font-size="37" transform="matrix(1 0 0 1 1089.45 1541)">IP: </text><text fill="#262626" font-family="Consolas,Consolas_MSFontService,sans-serif" font-weight="400" font-size="37" transform="matrix(1 0 0 1 1169.65 1541)">192.168.200.1</text><text fill="#262626" font-family="Consolas,Consolas_MSFontService,sans-serif" font-weight="400" font-size="37" transform="matrix(1 0 0 1 1430.33 1541)"> </text><text fill="#262626" font-family="MS Mincho,MS Mincho_MSFontService,sans-serif" font-weight="400" font-size="37" transform="matrix(1 0 0 1 860.554 1585)">※</text><text fill="#262626" font-family="Consolas,Consolas_MSFontService,sans-serif" font-weight="400" font-size="37" transform="matrix(1 0 0 1 897.22 1585)">configured </text><text fill="#262626" font-family="Consolas,Consolas_MSFontService,sans-serif" font-weight="400" font-size="37" transform="matrix(1 0 0 1 1117.79 1585)">via </text><text fill="#262626" font-family="Consolas,Consolas_MSFontService,sans-serif" font-weight="400" font-size="37" transform="matrix(1 0 0 1 1198 1585)">netplan</text><text fill="#262626" font-family="Consolas,Consolas_MSFontService,sans-serif" font-weight="400" font-size="37" transform="matrix(1 0 0 1 1338.37 1585)"> </text><path d="M1560 1400 1613 1400 1613 1381 1651 1419 1613 1457 1613 1438 1560 1438Z" fill="#BFBFBF" fill-rule="evenodd"/></g></svg>